PathFileType	4	(X/Y/Z)	4_coords_data.trc
DataRate	CameraRate	NumFrames	NumMarkers	Units	OrigDataRate	OrigDataStartFrame	OrigNumFrames
30.0	30.0	9	21	m	30.0	1	49
Frame#	Time	THUMB_TIP	THUMB_IP	THUMB_MCP	THUMB_CMC	INDEX_TIP	INDEX_DIP	INDEX_PIP	INDEX_MCP	MIDDLE_TIP	MIDDLE_DIP	MIDDLE_PIP	MIDDLE_MCP	RING_TIP	RING_DIP	RING_PIP	RING_MCP	PINKY_TIP	PINKY_DIP	PINKY_PIP	PINKY_MCP	WRIST
X1	Y1	Z1	X2	Y2	Z2	X3	Y3	Z3	X4	Y4	Z4	X5	Y5	Z5	X6	Y6	Z6	X7	Y7	Z7	X8	Y8	Z8	X9	Y9	Z9	X10	Y10	Z10	X11	Y11	Z11	X12	Y12	Z12	X13	Y13	Z13	X14	Y14	Z14	X15	Y15	Z15	X16	Y16	Z16	X17	Y17	Z17	X18	Y18	Z18	X19	Y19	Z19	X20	Y20	Z20	X21	Y21	Z21
0	-2.749317978547796e-18	0.5386446441864063	-0.026802270036800357	-0.13685432734592184	0.5236738980548394	-0.020777229023487664	-0.12049658786113743	0.49366239505309184	-0.01514340579615625	-0.11446419833299226	0.46944952400339635	-0.027999693710841322	-0.07927410403664886	0.5660275590222104	0.05770868515016203	-0.15720147584918498	0.5527118972590028	0.04912170662872617	-0.1484289647103917	0.5342337371353983	0.03945012037766071	-0.13439230375293337	0.5056149301510735	0.025503037271678686	-0.10610663859142816	0.5113409417836416	-0.006282030235985059	-0.1138256648312102	0.5266174018369888	-0.00498306685205363	-0.12346633194327739	0.5446687180284172	0.01716305533978535	-0.11771230677638606	0.5200574295019703	0.026332374730653196	-0.08156875991147189	0.5274530090925358	-0.02046891073739232	-0.10593420404346005	0.5436748676714362	-0.01853461493342201	-0.1135571827256352	0.5592436571579339	-0.0019113697079766734	-0.1034844228704696	0.5333642404816556	0.0068153335636773615	-0.0736713170861994	0.5961782407463885	0.02352550313950874	-0.07107336367891615	0.5827890338094572	0.012861153670699954	-0.07104529221380229	0.5646947963991451	0.0026322685326291007	-0.06808210130341275	0.5345751645527302	-0.01709691492350629	-0.06597246896800724	0.462283081001861	-0.023011742144276925	-0.051989820119430985
1	0.03333333333333339	0.5385346000983475	-0.027087666150616307	-0.1365244663984022	0.5235818543252704	-0.020748397521876294	-0.120269342064876	0.4936368609646956	-0.01480702898675812	-0.11420159845089206	0.4696813260257652	-0.02843982532639222	-0.07912783033636311	0.5663453192302239	0.05701695879281654	-0.1576274755515804	0.5529352501306094	0.04856932952417292	-0.14886348065866084	0.5346658996812885	0.038689328695356684	-0.13469922103161058	0.5059005134976111	0.024714335504906426	-0.10657648615338822	0.5117775383611096	-0.007864902998438006	-0.11488654714870927	0.527058068670678	-0.006135214922442067	-0.12445281980937084	0.5452822857113852	0.015782215494818064	-0.118377154647616	0.5204468905158567	0.02530939748826544	-0.0824803042322153	0.5275527207932925	-0.02139067034036901	-0.10648206733807403	0.5438913962857811	-0.019154416996945645	-0.11376539447168404	0.5594450549722483	-0.0023868206641627365	-0.10391088313495467	0.5335881291231198	0.006036533252724574	-0.07399120184615188	0.5961260211073465	0.02358377548812096	-0.07165787386943873	0.5827042757675386	0.012962936140070158	-0.07142437102954452	0.5647703456855889	0.0023452897246450943	-0.06888434043666691	0.5344988561807081	-0.01710114447977462	-0.06636311635121267	0.4622830810018608	-0.023011742144276925	-0.051989820119430985
2	0.06666666666666676	0.5384047342277672	-0.027417447796390437	-0.13628234960621471	0.5234711010893608	-0.02081512059722923	-0.12011460774648963	0.49358842053828433	-0.01460614900843027	-0.11400772025024336	0.4698302534958769	-0.028783473060958853	-0.07901567856224428	0.5666296218964242	0.05630074903082627	-0.1580277034569198	0.5531397816994038	0.0479846147334696	-0.1492603708062682	0.5350228880312196	0.037973755789887154	-0.13499255036909558	0.5061339000254124	0.024032240806794558	-0.10698011338163338	0.5120956166186653	-0.009142545880988617	-0.11571310234984056	0.5273825502122983	-0.007137430437546444	-0.12521516388207238	0.5457575355930657	0.014583857742613948	-0.11889415905285322	0.5207499096812767	0.024467844064643973	-0.0832140051624628	0.5275985036810937	-0.022185806807590636	-0.10693133303329866	0.5440272028184088	-0.019751171891038588	-0.11394349371875728	0.5595916907159286	-0.002893637546879879	-0.10426102340775356	0.5337688469261308	0.0053735012954087	-0.07426842452119431	0.5961043894093145	0.02346384199368179	-0.07219588170184804	0.582650216388452	0.012889146278036168	-0.07179458524509613	0.5648408525661657	0.0019948530088812477	-0.06956906206816027	0.5344381673980687	-0.0171975143117431	-0.06670319008919562	0.4622830810018609	-0.023011742144276925	-0.051989820119430985
3	0.10000000000000014	0.53827400404357	-0.027796741234399347	-0.13612604719557708	0.523359253007398	-0.020978531656306254	-0.12003063730088315	0.4935345151774939	-0.014537289025985167	-0.11388121401452345	0.46991414478585836	-0.029050558160146123	-0.0789336372515867	0.5668830420710282	0.055573707290624275	-0.15840711218588555	0.5533274937710948	0.047379923108553545	-0.14962593851343048	0.5353130042090762	0.037304186475055845	-0.1352743696057353	0.5063214737254857	0.023448685045785345	-0.1073252670376289	0.5123084570740167	-0.010142694983168443	-0.11634035683895877	0.5276090349848719	-0.008000099581390807	-0.12579030924826423	0.5461153224818523	0.013555909754005002	-0.11928912976978201	0.5209832075722918	0.02378922335092115	-0.08379541181857514	0.5275993993435137	-0.02286508845178392	-0.1072841508110573	0.544096962531533	-0.020328261511192602	-0.11409553231048924	0.5596932943245381	-0.0034243993629422542	-0.10454598477799071	0.5339133735579802	0.004814108994220634	-0.07450861639594075	0.5961166551683525	0.023200629871370393	-0.07269578811903282	0.5826304276779897	0.012672793898933832	-0.07216068269423226	0.5649062563200924	0.0015995908008543669	-0.07014823596833458	0.5343910826382277	-0.017368301949160836	-0.06699757400780065	0.4622830810018609	-0.023011742144276925	-0.051989820119430985
4	0.13333333333333353	0.5381528535575196	-0.028221068544571182	-0.13604866910831492	0.5232557583003203	-0.02122985765535046	-0.12001122781612711	0.4934844746706507	-0.014588053646931942	-0.1138163016216101	0.46994657525028416	-0.02925582467271115	-0.07887758693414593	0.5671069471505994	0.05484883622582126	-0.15876779473220348	0.553498817959724	0.046767358216331045	-0.14996390166682744	0.5355435713337039	0.03668202743589599	-0.1355449885785257	0.5064687266457276	0.022956059822852315	-0.1076185259766182	0.5124312874539663	-0.010895332654136003	-0.11680084616714592	0.5277541012939994	-0.008732880218555339	-0.12621015939859603	0.546374346584076	0.012686174788154703	-0.11958293539778547	0.5211599374491365	0.023255519140594427	-0.08424640397582162	0.5275636020650271	-0.023438147803258924	-0.10754704799291948	0.5441129108462679	-0.020883499532859395	-0.11422493321787575	0.5597573099153295	-0.003967904756352891	-0.10477530835098431	0.5340272732724419	0.0043477957834092695	-0.07471644654803733	0.5961606464205619	0.022828047463044676	-0.07316299252675723	0.5826432419244919	0.01234608308016949	-0.0725240884918934	0.5649659468921995	0.0011768451652045542	-0.07063374890859164	0.5343554618949647	-0.017596432267814488	-0.06725059746992207	0.462283081001861	-0.023011742144276925	-0.051989820119430985
5	0.1666666666666669	0.5380458957752489	-0.02867939547635112	-0.13603979864137017	0.5231645319253644	-0.0215535839058425	-0.12004705593009768	0.493442117670048	-0.014740076965477744	-0.11380412280463786	0.46993843178576045	-0.02941053729018317	-0.0788435114868421	0.5673019352567745	0.05413859920660924	-0.15910976909846192	0.5536531234929238	0.04615886864892482	-0.15027609275948922	0.5357211871673156	0.036109160483533964	-0.13580339921596352	0.5065804411947983	0.022547149805483446	-0.10786552376821945	0.5124805654169421	-0.011431821443058543	-0.11712472892241838	0.5278331588744615	-0.009345079010047885	-0.12650254210814588	0.5465517182851913	0.011962213155145451	-0.1197925209327641	0.5212906003729879	0.022849244410929836	-0.08458603867080938	0.5274990548689401	-0.023913997710172108	-0.1077301724497935	0.5440856108130682	-0.021410953106913655	-0.11433478671759201	0.5597896074127868	-0.004510350613146197	-0.10495746806332373	0.5341150399477494	0.003965233723515982	-0.07489583321697213	0.5962301676509105	0.022378902531427713	-0.07360090387144108	0.5826831539619475	0.01194029731793933	-0.07288400687188085	0.5650189593378497	0.0007430521955419378	-0.07103740216297716	0.5343291823911656	-0.01786520819135362	-0.06746617165567648	0.462283081001861	-0.023011742144276925	-0.051989820119430985
6	0.20000000000000023	0.5379540477574892	-0.029156266009836007	-0.13608677476069542	0.5230860370867207	-0.021929675870778098	-0.12012686706497266	0.4934078140920223	-0.01497107699651623	-0.11383393598446118	0.4698989806220042	-0.02952363118607937	-0.07882753777729368	0.5674681524426972	0.05345504203505724	-0.1594316495616916	0.5537891062541614	0.04556633996248116	-0.15056304905304074	0.5358519388609894	0.03558780394897476	-0.13604765453768286	0.5066608424768239	0.02221505753692543	-0.10807113510996658	0.5124730947361801	-0.011784451143354135	-0.11733992003315308	0.5278607040062356	-0.00984601290223086	-0.126692135713806	0.5466633260468635	0.011371183002734542	-0.11993184338820195	0.5213837609716335	0.022553371798947897	-0.08483127125136847	0.5274135831188348	-0.024301316430867637	-0.10784636308894252	0.5440245968285294	-0.021902403433502582	-0.1144281136134922	0.5597950674025935	-0.005036323346785054	-0.10510032827178295	0.5341803595043448	0.003658041271394352	-0.07505011034955239	0.596316402940427	0.021885129229567535	-0.07401168487000997	0.5827421727894915	0.011485991996908806	-0.07323823763473075	0.5650641335059204	0.00031406005005729654	-0.0713709179878998	0.5343102395370803	-0.018158097845280774	-0.06764790315539598	0.4622830810018608	-0.023011742144276925	-0.051989820119430985
7	0.23333333333333361	0.5378762175095849	-0.02963334609795054	-0.1361757841932239	0.5230189190955709	-0.02233518532737855	-0.12023848413318161	0.4933801089693971	-0.015256328933512808	-0.11389413811017557	0.4698366148535623	-0.029602514804566882	-0.07882590696329805	0.5676055228721856	0.052809905956559544	-0.15973120165729826	0.5539050868748178	0.045001662444161705	-0.1508244970628298	0.5359415795908944	0.03512038502448489	-0.1362751810783645	0.5067137261494445	0.021953125767446013	-0.108239632914238	0.5124252128082244	-0.011986149458651507	-0.11747228433911244	0.5278504732777062	-0.010245300883876873	-0.12680131353235374	0.5467240853840059	0.010899700050301941	-0.12001270163046102	0.5214466088031128	0.022351204971082783	-0.08499756013779036	0.5273147911253994	-0.02460860629834305	-0.10791020704388393	0.5439388762469519	-0.022348498879342982	-0.11450806338711805	0.5597780311571239	-0.005529609462271989	-0.10521149899440213	0.534226312795006	0.0034185385177786243	-0.07518216049902188	0.5964091334607542	0.021378131151133073	-0.07439679385330317	0.5828109949427892	0.011013304685224434	-0.07358377406397643	0.5651002375299828	-9.461751343919911e-05	-0.07164595175706545	0.5342968128493314	-0.01845857346515234	-0.0677991867854329	0.462283081001861	-0.023011742144276925	-0.051989820119430985
7	0.2666666666666655	0.5378105952382582	-0.030090585091847588	-0.13629272056805908	0.5229612473732643	-0.022745454224566086	-0.12036959523014529	0.4933569608750533	-0.015569759971060249	-0.11397306234802468	0.4697593872797746	-0.029653646002813838	-0.0788349253077662	0.5677139150270866	0.052214719816317645	-0.1600057809826625	0.5539992362711417	0.044476769769025704	-0.15105973628755553	0.5359956688824095	0.03470942622515083	-0.13648302903333298	0.5067425661047505	0.021754861597666375	-0.1083748215630575	0.5123521917903726	-0.01207021808162323	-0.11754590199127596	0.5278155571074672	-0.010553061915257622	-0.12685087755475488	0.5467481257661728	0.010533745852920218	-0.12004544353984331	0.5214853993419952	0.02222623262674872	-0.08509936611102431	0.5272099075984653	-0.024844273393845873	-0.10793719129366042	0.5438372858727376	-0.02273962810121577	-0.11457803159564539	0.5597426174686913	-0.005973824734272215	-0.10529857884864902	0.5342555351198154	0.0032395378242470185	-0.07529452216114585	0.5964977001554055	0.020889105778735262	-0.07475738705589025	0.5828799327302621	0.010552250573725552	-0.07391724729051391	0.5651260520015724	-0.00046760935439826845	-0.07187410626846191	0.5342872990703362	-0.018749997935500362	-0.06792327896069972	0.4622830810018608	-0.023011742144276925	-0.051989820119430985
